<svg width="41" height="25" viewBox="0 0 41 25" fill="none" xmlns="http://www.w3.org/2000/svg">
<g filter="url(#filter0_b_1_4)">
<mask id="path-1-outside-1_1_4" maskUnits="userSpaceOnUse" x="-1" y="-1" width="43" height="27" fill="black">
<rect fill="white" x="-1" y="-1" width="43" height="27"/>
<path d="M0.36 0.865999L17.734 0.389999L17.632 2.668L12.872 3.144L10.764 23.136L7.024 23.476L5.324 3.892L0.564 4.368L0.36 0.865999ZM28.8318 14.364C28.4238 14.5 28.0951 14.568 27.8458 14.568L26.9278 23.136L23.5278 23.476L21.5898 1.58C22.7911 1.19467 24.3778 0.843333 26.3498 0.526C28.3445 0.208666 30.2485 0.0499996 32.0618 0.0499996C34.9631 0.0499996 37.2865 0.593999 39.0318 1.682C39.4398 2.906 39.6438 4.028 39.6438 5.048C39.6438 7.904 38.0005 10.2613 34.7138 12.12L40.4258 22.966L38.0458 24.292L28.8318 14.364ZM33.0818 5.966C33.0818 4.35667 32.3678 3.12133 30.9398 2.26C30.3958 2.26 29.7838 2.37333 29.1038 2.6L28.0838 12.392C29.6478 11.6893 30.8718 10.7487 31.7558 9.57C32.6398 8.36867 33.0818 7.16733 33.0818 5.966Z"/>
</mask>
<path d="M0.36 0.865999L17.734 0.389999L17.632 2.668L12.872 3.144L10.764 23.136L7.024 23.476L5.324 3.892L0.564 4.368L0.36 0.865999ZM28.8318 14.364C28.4238 14.5 28.0951 14.568 27.8458 14.568L26.9278 23.136L23.5278 23.476L21.5898 1.58C22.7911 1.19467 24.3778 0.843333 26.3498 0.526C28.3445 0.208666 30.2485 0.0499996 32.0618 0.0499996C34.9631 0.0499996 37.2865 0.593999 39.0318 1.682C39.4398 2.906 39.6438 4.028 39.6438 5.048C39.6438 7.904 38.0005 10.2613 34.7138 12.12L40.4258 22.966L38.0458 24.292L28.8318 14.364ZM33.0818 5.966C33.0818 4.35667 32.3678 3.12133 30.9398 2.26C30.3958 2.26 29.7838 2.37333 29.1038 2.6L28.0838 12.392C29.6478 11.6893 30.8718 10.7487 31.7558 9.57C32.6398 8.36867 33.0818 7.16733 33.0818 5.966Z" fill="#00DC84"/>
<path d="M0.36 0.865999L0.332613 -0.133626L-0.69828 -0.105382L-0.638308 0.924153L0.36 0.865999ZM17.734 0.389999L18.733 0.43473L18.7811 -0.639063L17.7066 -0.609626L17.734 0.389999ZM17.632 2.668L17.7315 3.66304L18.5923 3.57696L18.631 2.71273L17.632 2.668ZM12.872 3.144L12.7725 2.14896L11.9628 2.22993L11.8775 3.03914L12.872 3.144ZM10.764 23.136L10.8545 24.1319L11.6724 24.0575L11.7585 23.2409L10.764 23.136ZM7.024 23.476L6.02775 23.5625L6.11458 24.5628L7.11454 24.4719L7.024 23.476ZM5.324 3.892L6.32025 3.80552L6.23263 2.79615L5.2245 2.89696L5.324 3.892ZM0.564 4.368L-0.434308 4.42615L-0.37369 5.46676L0.663504 5.36304L0.564 4.368ZM0.387387 1.86562L17.7614 1.38962L17.7066 -0.609626L0.332613 -0.133626L0.387387 1.86562ZM16.735 0.345269L16.633 2.62327L18.631 2.71273L18.733 0.43473L16.735 0.345269ZM17.5325 1.67296L12.7725 2.14896L12.9715 4.13904L17.7315 3.66304L17.5325 1.67296ZM11.8775 3.03914L9.76951 23.0311L11.7585 23.2409L13.8665 3.24886L11.8775 3.03914ZM10.6735 22.1401L6.93346 22.4801L7.11454 24.4719L10.8545 24.1319L10.6735 22.1401ZM8.02025 23.3895L6.32025 3.80552L4.32775 3.97848L6.02775 23.5625L8.02025 23.3895ZM5.2245 2.89696L0.464496 3.37296L0.663504 5.36304L5.4235 4.88704L5.2245 2.89696ZM1.56231 4.30984L1.35831 0.807845L-0.638308 0.924153L-0.434308 4.42615L1.56231 4.30984ZM28.8318 14.364L29.5648 13.6837L29.1266 13.2116L28.5156 13.4153L28.8318 14.364ZM27.8458 14.568V13.568H26.9472L26.8515 14.4615L27.8458 14.568ZM26.9278 23.136L27.0273 24.131L27.8356 24.0502L27.9221 23.2425L26.9278 23.136ZM23.5278 23.476L22.5317 23.5642L22.6209 24.5717L23.6273 24.471L23.5278 23.476ZM21.5898 1.58L21.2844 0.627783L20.5232 0.871926L20.5937 1.66816L21.5898 1.58ZM26.3498 0.526L26.1927 -0.461582L26.1909 -0.461299L26.3498 0.526ZM39.0318 1.682L39.9805 1.36577L39.8666 1.02398L39.5608 0.833382L39.0318 1.682ZM34.7138 12.12L34.2216 11.2495L33.3768 11.7273L33.829 12.586L34.7138 12.12ZM40.4258 22.966L40.9125 23.8396L41.7657 23.3642L41.3106 22.5L40.4258 22.966ZM38.0458 24.292L37.3128 24.9723L37.8468 25.5476L38.5325 25.1656L38.0458 24.292ZM30.9398 2.26L31.4563 1.40371L31.2181 1.26H30.9398V2.26ZM29.1038 2.6L28.7876 1.65132L28.176 1.85518L28.1092 2.49639L29.1038 2.6ZM28.0838 12.392L27.0892 12.2884L26.9092 14.016L28.4936 13.3042L28.0838 12.392ZM31.7558 9.57L32.5558 10.17L32.5613 10.1627L31.7558 9.57ZM28.5156 13.4153C28.1469 13.5382 27.9372 13.568 27.8458 13.568V15.568C28.2531 15.568 28.7007 15.4618 29.148 15.3127L28.5156 13.4153ZM26.8515 14.4615L25.9335 23.0295L27.9221 23.2425L28.8401 14.6745L26.8515 14.4615ZM26.8283 22.141L23.4283 22.481L23.6273 24.471L27.0273 24.131L26.8283 22.141ZM24.5239 23.3878L22.5859 1.49183L20.5937 1.66816L22.5317 23.5642L24.5239 23.3878ZM21.8952 2.53221C23.0294 2.16842 24.5613 1.82667 26.5087 1.5133L26.1909 -0.461299C24.1943 -0.140006 22.5529 0.220907 21.2844 0.627783L21.8952 2.53221ZM26.5069 1.51358C28.4554 1.20359 30.3066 1.05 32.0618 1.05V-0.95C30.1903 -0.95 28.2336 -0.786262 26.1927 -0.461581L26.5069 1.51358ZM32.0618 1.05C34.8494 1.05 36.9686 1.57424 38.5028 2.53062L39.5608 0.833382C37.6043 -0.386237 35.0769 -0.95 32.0618 -0.95V1.05ZM38.0831 1.99823C38.4657 3.146 38.6438 4.15962 38.6438 5.048H40.6438C40.6438 3.89638 40.4139 2.666 39.9805 1.36577L38.0831 1.99823ZM38.6438 5.048C38.6438 7.42769 37.3103 9.5028 34.2216 11.2495L35.2061 12.9905C38.6906 11.0199 40.6438 8.38031 40.6438 5.048H38.6438ZM33.829 12.586L39.541 23.432L41.3106 22.5L35.5986 11.654L33.829 12.586ZM39.9391 22.0924L37.5591 23.4184L38.5325 25.1656L40.9125 23.8396L39.9391 22.0924ZM38.7788 23.6117L29.5648 13.6837L28.0988 15.0443L37.3128 24.9723L38.7788 23.6117ZM34.0818 5.966C34.0818 3.99098 33.1711 2.43802 31.4563 1.40371L30.4233 3.11629C31.5645 3.80465 32.0818 4.72235 32.0818 5.966H34.0818ZM30.9398 1.26C30.2604 1.26 29.5391 1.40081 28.7876 1.65132L29.42 3.54868C30.0285 3.34586 30.5313 3.26 30.9398 3.26V1.26ZM28.1092 2.49639L27.0892 12.2884L29.0784 12.4956L30.0984 2.70361L28.1092 2.49639ZM28.4936 13.3042C30.1866 12.5436 31.5547 11.5048 32.5558 10.17L30.9558 8.97C30.1889 9.99257 29.1091 10.8351 27.674 11.4798L28.4936 13.3042ZM32.5613 10.1627C33.5407 8.8317 34.0818 7.42753 34.0818 5.966H32.0818C32.0818 6.90714 31.739 7.90563 30.9504 8.97732L32.5613 10.1627Z" fill="black" mask="url(#path-1-outside-1_1_4)"/>
</g>
<defs>
<filter id="filter0_b_1_4" x="-3.64" y="-3.95" width="48.0658" height="32.242" filterUnits="userSpaceOnUse" color-interpolation-filters="sRGB">
<feFlood flood-opacity="0" result="BackgroundImageFix"/>
<feGaussianBlur in="BackgroundImageFix" stdDeviation="2"/>
<feComposite in2="SourceAlpha" operator="in" result="effect1_backgroundBlur_1_4"/>
<feBlend mode="normal" in="SourceGraphic" in2="effect1_backgroundBlur_1_4" result="shape"/>
</filter>
</defs>
</svg>
