<svg width="51" height="48" viewBox="0 0 51 48" fill="none" xmlns="http://www.w3.org/2000/svg">
<rect width="51" height="48" fill="#1E1E1E"/>
<path d="M3 2C3 0.895431 3.89543 0 5 0H49C50.1046 0 51 0.895431 51 2V46C51 47.1046 50.1046 48 49 48H5C3.89543 48 3 47.1046 3 46V2Z" fill="#444444"/>
<path d="M5 1H49V-1H5V1ZM50 2V46H52V2H50ZM49 47H5V49H49V47ZM4 46V2H2V46H4ZM5 47C4.44772 47 4 46.5523 4 46H2C2 47.6569 3.34315 49 5 49V47ZM50 46C50 46.5523 49.5523 47 49 47V49C50.6569 49 52 47.6569 52 46H50ZM49 1C49.5523 1 50 1.44772 50 2H52C52 0.343145 50.6569 -1 49 -1V1ZM5 -1C3.34315 -1 2 0.343147 2 2H4C4 1.44772 4.44772 1 5 1V-1Z" fill="white" fill-opacity="0.1"/>
<g filter="url(#filter0_d_0_1)">
<mask id="path-3-outside-1_0_1" maskUnits="userSpaceOnUse" x="3" y="10" width="46" height="29" fill="black">
<rect fill="white" x="3" y="10" width="46" height="29"/>
<path d="M4.44 12.564L22.836 12.06L22.728 14.472L17.688 14.976L15.456 36.144L11.496 36.504L9.696 15.768L4.656 16.272L4.44 12.564ZM34.5866 26.856C34.1546 27 33.8066 27.072 33.5426 27.072L32.5706 36.144L28.9706 36.504L26.9186 13.32C28.1906 12.912 29.8706 12.54 31.9586 12.204C34.0706 11.868 36.0866 11.7 38.0066 11.7C41.0786 11.7 43.5386 12.276 45.3866 13.428C45.8186 14.724 46.0346 15.912 46.0346 16.992C46.0346 20.016 44.2946 22.512 40.8146 24.48L46.8626 35.964L44.3426 37.368L34.5866 26.856ZM39.0866 17.964C39.0866 16.26 38.3306 14.952 36.8186 14.04C36.2426 14.04 35.5946 14.16 34.8746 14.4L33.7946 24.768C35.4506 24.024 36.7466 23.028 37.6826 21.78C38.6186 20.508 39.0866 19.236 39.0866 17.964Z"/>
</mask>
<path d="M4.44 12.564L22.836 12.06L22.728 14.472L17.688 14.976L15.456 36.144L11.496 36.504L9.696 15.768L4.656 16.272L4.44 12.564ZM34.5866 26.856C34.1546 27 33.8066 27.072 33.5426 27.072L32.5706 36.144L28.9706 36.504L26.9186 13.32C28.1906 12.912 29.8706 12.54 31.9586 12.204C34.0706 11.868 36.0866 11.7 38.0066 11.7C41.0786 11.7 43.5386 12.276 45.3866 13.428C45.8186 14.724 46.0346 15.912 46.0346 16.992C46.0346 20.016 44.2946 22.512 40.8146 24.48L46.8626 35.964L44.3426 37.368L34.5866 26.856ZM39.0866 17.964C39.0866 16.26 38.3306 14.952 36.8186 14.04C36.2426 14.04 35.5946 14.16 34.8746 14.4L33.7946 24.768C35.4506 24.024 36.7466 23.028 37.6826 21.78C38.6186 20.508 39.0866 19.236 39.0866 17.964Z" fill="#00DC84"/>
<path d="M4.44 12.564L4.41261 11.5644L3.38172 11.5926L3.44169 12.6222L4.44 12.564ZM22.836 12.06L23.835 12.1047L23.8831 11.0309L22.8086 11.0604L22.836 12.06ZM22.728 14.472L22.8275 15.467L23.6883 15.381L23.727 14.5167L22.728 14.472ZM17.688 14.976L17.5885 13.981L16.7788 14.0619L16.6935 14.8711L17.688 14.976ZM15.456 36.144L15.5465 37.1399L16.3644 37.0655L16.4505 36.2489L15.456 36.144ZM11.496 36.504L10.4997 36.5905L10.5866 37.5908L11.5865 37.4999L11.496 36.504ZM9.696 15.768L10.6923 15.6815L10.6046 14.6721L9.5965 14.773L9.696 15.768ZM4.656 16.272L3.65769 16.3302L3.71831 17.3708L4.7555 17.267L4.656 16.272ZM4.46739 13.5636L22.8634 13.0596L22.8086 11.0604L4.41261 11.5644L4.46739 13.5636ZM21.837 12.0153L21.729 14.4273L23.727 14.5167L23.835 12.1047L21.837 12.0153ZM22.6285 13.477L17.5885 13.981L17.7875 15.971L22.8275 15.467L22.6285 13.477ZM16.6935 14.8711L14.4615 36.0391L16.4505 36.2489L18.6825 15.0809L16.6935 14.8711ZM15.3655 35.1481L11.4055 35.5081L11.5865 37.4999L15.5465 37.1399L15.3655 35.1481ZM12.4923 36.4175L10.6923 15.6815L8.69975 15.8545L10.4997 36.5905L12.4923 36.4175ZM9.5965 14.773L4.5565 15.277L4.7555 17.267L9.7955 16.763L9.5965 14.773ZM5.65431 16.2138L5.43831 12.5058L3.44169 12.6222L3.65769 16.3302L5.65431 16.2138ZM34.5866 26.856L35.3196 26.1757L34.8814 25.7036L34.2704 25.9073L34.5866 26.856ZM33.5426 27.072V26.072H32.644L32.5483 26.9655L33.5426 27.072ZM32.5706 36.144L32.6701 37.139L33.4784 37.0582L33.5649 36.2505L32.5706 36.144ZM28.9706 36.504L27.9745 36.5922L28.0637 37.5997L29.0701 37.499L28.9706 36.504ZM26.9186 13.32L26.6132 12.3678L25.852 12.6119L25.9225 13.4082L26.9186 13.32ZM31.9586 12.204L31.8015 11.2164L31.7997 11.2167L31.9586 12.204ZM45.3866 13.428L46.3353 13.1118L46.2214 12.77L45.9156 12.5794L45.3866 13.428ZM40.8146 24.48L40.3224 23.6095L39.4776 24.0873L39.9298 24.946L40.8146 24.48ZM46.8626 35.964L47.3493 36.8376L48.2025 36.3622L47.7474 35.498L46.8626 35.964ZM44.3426 37.368L43.6097 38.0483L44.1436 38.6236L44.8293 38.2416L44.3426 37.368ZM36.8186 14.04L37.3351 13.1837L37.0969 13.04H36.8186V14.04ZM34.8746 14.4L34.5584 13.4513L33.9468 13.6552L33.88 14.2964L34.8746 14.4ZM33.7946 24.768L32.8 24.6644L32.62 26.392L34.2044 25.6802L33.7946 24.768ZM37.6826 21.78L38.4827 22.38L38.4881 22.3727L37.6826 21.78ZM34.2704 25.9073C33.8777 26.0382 33.6486 26.072 33.5426 26.072V28.072C33.9646 28.072 34.4315 27.9618 34.9029 27.8047L34.2704 25.9073ZM32.5483 26.9655L31.5763 36.0375L33.5649 36.2505L34.5369 27.1785L32.5483 26.9655ZM32.4711 35.149L28.8711 35.509L29.0701 37.499L32.6701 37.139L32.4711 35.149ZM29.9667 36.4158L27.9147 13.2318L25.9225 13.4082L27.9745 36.5922L29.9667 36.4158ZM27.2241 14.2722C28.4289 13.8858 30.0541 13.5233 32.1175 13.1913L31.7997 11.2167C29.6871 11.5567 27.9524 11.9382 26.6132 12.3678L27.2241 14.2722ZM32.1157 13.1916C34.1816 12.8629 36.1448 12.7 38.0066 12.7V10.7C36.0285 10.7 33.9597 10.8731 31.8015 11.2164L32.1157 13.1916ZM38.0066 12.7C40.9649 12.7 43.2208 13.2562 44.8576 14.2766L45.9156 12.5794C43.8565 11.2958 41.1924 10.7 38.0066 10.7V12.7ZM44.4379 13.7442C44.8445 14.964 45.0346 16.0436 45.0346 16.992H47.0346C47.0346 15.7804 46.7927 14.484 46.3353 13.1118L44.4379 13.7442ZM45.0346 16.992C45.0346 19.5397 43.6045 21.7535 40.3224 23.6095L41.3069 25.3505C44.9848 23.2705 47.0346 20.4923 47.0346 16.992H45.0346ZM39.9298 24.946L45.9778 36.43L47.7474 35.498L41.6994 24.014L39.9298 24.946ZM46.3759 35.0904L43.8559 36.4944L44.8293 38.2416L47.3493 36.8376L46.3759 35.0904ZM45.0756 36.6877L35.3196 26.1757L33.8537 27.5363L43.6097 38.0483L45.0756 36.6877ZM40.0866 17.964C40.0866 15.8943 39.1339 14.2687 37.3351 13.1837L36.3021 14.8963C37.5274 15.6353 38.0866 16.6257 38.0866 17.964H40.0866ZM36.8186 13.04C36.1072 13.04 35.3499 13.1875 34.5584 13.4513L35.1909 15.3487C35.8393 15.1325 36.3781 15.04 36.8186 15.04V13.04ZM33.88 14.2964L32.8 24.6644L34.7892 24.8716L35.8692 14.5036L33.88 14.2964ZM34.2044 25.6802C35.9894 24.8782 37.4296 23.7841 38.4826 22.38L36.8826 21.18C36.0637 22.2719 34.9119 23.1698 33.3848 23.8558L34.2044 25.6802ZM38.4881 22.3727C39.5195 20.971 40.0866 19.4962 40.0866 17.964H38.0866C38.0866 18.9758 37.7178 20.045 36.8772 21.1873L38.4881 22.3727Z" fill="black" mask="url(#path-3-outside-1_0_1)"/>
</g>
<defs>
<filter id="filter0_d_0_1" x="0.439999" y="11.7" width="50.4226" height="33.668" filterUnits="userSpaceOnUse" color-interpolation-filters="sRGB">
<feFlood flood-opacity="0" result="BackgroundImageFix"/>
<feColorMatrix in="SourceAlpha" type="matrix" values="0 0 0 0 0 0 0 0 0 0 0 0 0 0 0 0 0 0 127 0" result="hardAlpha"/>
<feOffset dy="4"/>
<feGaussianBlur stdDeviation="2"/>
<feComposite in2="hardAlpha" operator="out"/>
<feColorMatrix type="matrix" values="0 0 0 0 0 0 0 0 0 0 0 0 0 0 0 0 0 0 0.25 0"/>
<feBlend mode="normal" in2="BackgroundImageFix" result="effect1_dropShadow_0_1"/>
<feBlend mode="normal" in="SourceGraphic" in2="effect1_dropShadow_0_1" result="shape"/>
</filter>
</defs>
</svg>
